<svg class="hidden" viewBox="0 0 50 20">
	<defs>
		<g id="icon-html5">
			<path width="32" d="M27.405,0l36.542,410.56l163.882,46.244l165.022-46.244L429.398,0H27.405z M350.025,133.904h-192.43l4.283,51.676h183.866
				l-14.273,155.315l-102.499,28.26v0.287h-1.143l-103.356-28.547l-6.28-79.367h49.965l3.711,39.971l55.959,15.126l56.245-15.126
				l6.283-65.097H115.625l-13.418-152.46h252.392L350.025,133.904z"/>
		</g>
		<g id="icon-css3">
			<path d="M76.194,24.26l-17.18,85.963h349.875l-10.941,55.527H47.852L30.906,251.7h349.842l-19.51,98.031l-141.005,46.711
				l-122.2-46.711l8.364-42.521H20.448L0,410.387l202.113,77.353l233.002-77.353L512,24.26H76.194z"/>
		</g>
	</defs>
</svg>